<?xml version="1.0" encoding="utf-8"?>
<!-- Generator: Adobe Illustrator 23.0.3, SVG Export Plug-In . SVG Version: 6.00 Build 0)  -->
<svg version="1.1" id="Calque_1" xmlns="http://www.w3.org/2000/svg" xmlns:xlink="http://www.w3.org/1999/xlink" x="0px" y="0px"
	 viewBox="0 0 236 192.8" style="enable-background:new 0 0 236 192.8;" xml:space="preserve">
<path d="M146,75.7c9.2,6.8,14.9,16.8,16.4,27.3c1.6,10.6-0.8,21.8-7.7,31c-6.8,9.3-16.8,14.9-27.2,16.5c-10.6,1.6-21.8-0.8-31.1-7.6
	c-9.2-6.9-14.8-16.8-16.5-27.4c-1.5-10.5,0.9-21.7,7.7-31c6.8-9.3,16.8-14.9,27.3-16.4l0.3-0.1l1.1-6.4c1-6,9.9-5.7,10.3,0.4
	l0.4,5.9C133.6,68.9,140.2,71.4,146,75.7L146,75.7z M42,105.5h24.1v3.5H42V105.5z M124.5,27.2l-0.1,24.1h-3.6l0.2-24.2L124.5,27.2z
	 M163.7,38.6l-13.1,20.4l3,2l13.1-20.4L163.7,38.6z M80.6,38.6l13,20.4l-3,2l-13-20.4L80.6,38.6z M191,66.2l-21,11.9l1.8,3.1
	l21-11.9L191,66.2z M53.3,66.2l21,11.9l-1.8,3.1l-21-11.9L53.3,66.2z M178.1,105.5h24.2v3.5h-24.2V105.5z M128.9,97.2l-18.2-0.9
	l3.7-23.2c-8.9,1.6-17.1,6.6-22.9,14.3c-6,8.2-8.2,18-6.8,27.3c1.5,9.3,6.4,18.1,14.6,24.2c8.2,6,18,8.2,27.4,6.7
	c9.3-1.4,18-6.4,24.1-14.5c6.1-8.3,8.1-18.1,6.7-27.4c-1.4-9.3-6.3-18.1-14.5-24.1c-4.8-3.6-10.3-5.8-15.8-6.7L128.9,97.2z"/>
</svg>
