<?xml version="1.0" encoding="utf-8"?>
<!-- Generator: Adobe Illustrator 23.0.3, SVG Export Plug-In . SVG Version: 6.00 Build 0)  -->
<svg version="1.1" id="Calque_1" xmlns="http://www.w3.org/2000/svg" xmlns:xlink="http://www.w3.org/1999/xlink" x="0px" y="0px"
	 viewBox="0 0 1579 230.9" style="enable-background:new 0 0 1579 230.9;" xml:space="preserve">
<style type="text/css">
	.st0{font-family:'Poppins-Bold';}
	.st1{font-size:20.3239px;}
	.st2{letter-spacing:2;}
</style>
<path d="M225.7,111.2c-1,11.4-6.4,21.5-14.5,28.4c-8.1,7-18.9,10.8-30.4,9.8c-11.5-0.9-21.5-6.4-28.4-14.4
	c-7-8.2-10.8-18.9-9.9-30.4c1-11.5,6.5-21.5,14.5-28.5c8.1-6.9,18.9-10.7,30.4-9.8c11.5,0.9,21.5,6.4,28.4,14.5L216,81l6-2.5
	c5.6-2.4,10,5.4,5.1,8.9l-4.8,3.4C224.9,97.1,226.3,103.9,225.7,111.2L225.7,111.2z M105.7,105.5h24.1v3.5h-24.1V105.5z M188.1,27.2
	L188,51.3h-3.6l0.2-24.2L188.1,27.2z M227.4,38.6l-13.1,20.4l3,2l13.1-20.4L227.4,38.6z M144.3,38.6l13,20.4l-3,2l-13-20.4
	L144.3,38.6z M254.7,66.2l-21,11.9l1.8,3.1l21-11.9L254.7,66.2z M117,66.2l21,11.9l-1.8,3.1l-21-11.9L117,66.2z M241.7,105.5H266
	v3.5h-24.2V105.5z M198.4,108.1l-8.8-15.9l21.7-9.1c-6.1-6.7-14.6-11.1-24.2-11.9c-10.1-0.8-19.6,2.6-26.8,8.6
	c-7.2,6.2-12,15-12.9,25.1c-0.8,10.1,2.6,19.6,8.7,26.8c6.1,7.2,14.9,12,25,12.9c10.2,0.8,19.6-2.6,26.8-8.7
	c7.2-6.1,12.1-14.9,12.9-25c0.5-6-0.5-11.8-2.6-17L198.4,108.1z"/>
<text transform="matrix(1 0 0 1 155.4533 190.4163)" class="st0 st1 st2">BASS</text>
<path d="M493,67.9c11.4,1,21.5,6.4,28.4,14.5c7,8.1,10.8,18.9,9.8,30.4c-0.9,11.5-6.4,21.5-14.4,28.4c-8.2,7-18.9,10.8-30.4,9.9
	c-11.5-1-21.5-6.5-28.5-14.5c-6.9-8.1-10.7-18.9-9.8-30.4c0.9-11.5,6.4-21.5,14.5-28.4l0.2-0.2l-2.5-6c-2.4-5.6,5.4-10,8.9-5.1
	l3.4,4.8C478.9,68.7,485.7,67.3,493,67.9L493,67.9z M409.5,105.5h24.1v3.5h-24.1V105.5z M492,27.2l-0.1,24.1h-3.6l0.2-24.2L492,27.2
	z M531.3,38.6l-13.1,20.4l3,2l13.1-20.4L531.3,38.6z M448.1,38.6l13,20.4l-3,2l-13-20.4L448.1,38.6z M558.6,66.2l-21,11.9l1.8,3.1
	l21-11.9L558.6,66.2z M420.8,66.2l21,11.9l-1.8,3.1l-21-11.9L420.8,66.2z M545.6,105.5h24.2v3.5h-24.2V105.5z M489.8,95.2l-15.9,8.8
	l-9.1-21.7c-6.7,6.1-11.1,14.6-11.9,24.2c-0.8,10.1,2.6,19.6,8.6,26.8c6.2,7.2,15,12,25.1,12.9c10.1,0.8,19.6-2.6,26.8-8.7
	c7.2-6.1,12-14.9,12.9-25c0.8-10.2-2.6-19.6-8.7-26.8c-6.1-7.2-14.9-12.1-25-12.9c-6-0.5-11.8,0.5-17,2.6L489.8,95.2z"/>
<text transform="matrix(1 0 0 1 448.8371 190.4163)" class="st0 st1 st2">TREBLE</text>
<path d="M824.1,82c7.4,8.7,10.7,19.7,9.8,30.3c-0.8,10.7-5.8,21-14.6,28.5c-8.7,7.5-19.7,10.7-30.3,9.9c-10.7-0.8-21-5.8-28.5-14.5
	c-7.4-8.8-10.6-19.8-9.9-30.4c0.9-10.6,5.8-21,14.6-28.5c8.7-7.5,19.7-10.7,30.3-9.8h0.3l2.5-6c2.3-5.6,10.9-3.3,9.9,2.7l-1,5.8
	C813.6,72.5,819.4,76.4,824.1,82L824.1,82z M713.4,105.5h24.1v3.5h-24.1V105.5z M795.9,27.2l-0.1,24.1h-3.6l0.2-24.2L795.9,27.2z
	 M835.1,38.6l-13.1,20.4l3,2l13.1-20.4L835.1,38.6z M752,38.6l13,20.4l-3,2l-13-20.4L752,38.6z M862.4,66.2l-21,11.9l1.8,3.1
	l21-11.9L862.4,66.2z M724.7,66.2l21,11.9l-1.8,3.1l-21-11.9L724.7,66.2z M849.5,105.5h24.2v3.5h-24.2V105.5z M802.6,99.1l-17.5-5
	l8.9-21.8c-9-0.4-18.2,2.5-25.5,8.7c-7.7,6.6-12.1,15.7-12.8,25.1c-0.7,9.4,2.2,19.1,8.7,26.9c6.6,7.7,15.7,12.1,25.1,12.8
	c9.4,0.8,19-2.1,26.8-8.6c7.8-6.7,12-15.8,12.8-25.1c0.8-9.4-2-19.1-8.6-26.8c-3.9-4.6-8.7-8-13.9-10.1L802.6,99.1z"/>
<text transform="matrix(1 0 0 1 750.0451 190.4163)" class="st0 st1 st2">MIDDLE</text>
<path d="M1066,82.9c7.1-8.9,17.2-14.4,27.8-15.6c10.6-1.3,21.8,1.5,30.8,8.7c9.1,7.1,14.4,17.2,15.6,27.7
	c1.3,10.6-1.5,21.8-8.6,30.8c-7.2,9-17.3,14.3-27.9,15.6c-10.6,1.2-21.7-1.6-30.8-8.7c-9.1-7.1-14.4-17.2-15.6-27.8l-0.1-0.3
	l-6.3-1.3c-6-1.1-5.3-10,0.7-10.3l5.9-0.2C1058.8,95.1,1061.5,88.6,1066,82.9L1066,82.9z M1017.3,105.5h24.1v3.5h-24.1V105.5z
	 M1099.7,27.2l-0.1,24.1h-3.6l0.2-24.2L1099.7,27.2z M1139,38.6L1126,59.1l3,2l13.1-20.4L1139,38.6z M1055.9,38.6l13,20.4l-3,2
	l-13-20.4L1055.9,38.6z M1166.3,66.2l-21,11.9l1.8,3.1l21-11.9L1166.3,66.2z M1028.6,66.2l21,11.9l-1.8,3.1l-21-11.9L1028.6,66.2z
	 M1153.3,105.5h24.2v3.5h-24.2V105.5z M1087,100.6l-1.5,18.1l-23.1-4.4c1.4,8.9,6,17.3,13.6,23.3c8,6.3,17.8,8.8,27.1,7.7
	c9.4-1.2,18.3-5.9,24.6-13.8c6.3-8,8.8-17.8,7.6-27.1c-1.1-9.3-5.8-18.2-13.7-24.6c-8.1-6.3-17.8-8.7-27.1-7.6
	c-9.3,1.1-18.3,5.7-24.6,13.7c-3.7,4.7-6.1,10.1-7.2,15.6L1087,100.6z"/>
<text transform="matrix(1 0 0 1 1067.6954 190.4163)" class="st0 st1 st2">GAIN</text>
<path d="M1441,113c-1.5,11.3-7.4,21.2-15.8,27.7c-8.5,6.6-19.4,9.9-30.8,8.4c-11.4-1.4-21.2-7.4-27.7-15.7
	c-6.6-8.5-9.9-19.4-8.5-30.9c1.5-11.4,7.5-21.2,15.8-27.8c8.5-6.5,19.4-9.8,30.8-8.4c11.4,1.4,21.2,7.4,27.7,15.8l0.2,0.2l6.1-2.2
	c5.7-2.1,9.8,5.9,4.7,9.2l-5,3.2C1440.8,98.9,1441.9,105.8,1441,113L1441,113z M1321.2,105.5h24.1v3.5h-24.1V105.5z M1403.6,27.2
	l-0.1,24.1h-3.6l0.2-24.2L1403.6,27.2z M1442.9,38.6l-13.1,20.4l3,2l13.1-20.4L1442.9,38.6z M1359.7,38.6l13,20.4l-3,2l-13-20.4
	L1359.7,38.6z M1470.2,66.2l-21,11.9l1.8,3.1l21-11.9L1470.2,66.2z M1332.4,66.2l21,11.9l-1.8,3.1l-21-11.9L1332.4,66.2z
	 M1457.2,105.5h24.2v3.5h-24.2V105.5z M1413.8,108.6l-8.1-16.3l22.1-8.1c-5.8-6.9-14.1-11.8-23.7-13c-10.1-1.2-19.7,1.7-27.2,7.4
	c-7.4,5.8-12.6,14.5-14,24.5c-1.2,10.1,1.7,19.7,7.5,27.2c5.8,7.4,14.4,12.6,24.4,14c10.2,1.2,19.7-1.7,27.2-7.5
	c7.4-5.8,12.7-14.4,14-24.4c0.8-6,0-11.8-1.9-17.1L1413.8,108.6z"/>
<text transform="matrix(1 0 0 1 1357.3488 190.4163)" class="st0 st1 st2">REVERB</text>
</svg>
